<svg xmlns="http://www.w3.org/2000/svg" viewBox="0 0 505 504"><defs><style>.cls-1{fill:#35393d;}.cls-1,.cls-2{fill-rule:evenodd;}.cls-2{fill:#02bff1;}</style></defs><title>sym-color</title><g id="sym-color"><path class="cls-1" d="M157.88,319a22.66,22.66,0,1,0,27.77,16,22.66,22.66,0,0,0-27.77-16Z"/><path class="cls-1" d="M335.49,318.85a22.66,22.66,0,1,0,27.76,16,22.66,22.66,0,0,0-27.76-16Z"/><path class="cls-1" d="M335.35,141.25a22.66,22.66,0,1,0,27.77,16,22.66,22.66,0,0,0-27.77-16Z"/><path class="cls-1" d="M157.75,141.38a22.66,22.66,0,1,0,27.77,16,22.66,22.66,0,0,0-27.77-16Z"/><path class="cls-1" d="M181.57,230.25a22.66,22.66,0,1,0,27.76,16,22.66,22.66,0,0,0-27.76-16Z"/><path class="cls-1" d="M311.67,230a22.66,22.66,0,1,0,27.76,16,22.66,22.66,0,0,0-27.76-16Z"/><path class="cls-1" d="M246.69,295.13a22.66,22.66,0,1,0,27.77,16,22.66,22.66,0,0,0-27.77-16Z"/><path class="cls-1" d="M246.4,165.14a22.66,22.66,0,1,0,27.77,16,22.66,22.66,0,0,0-27.77-16Z"/><path class="cls-2" d="M300.56,174.06a42.16,42.16,0,0,0,61.78,25.53h0A19.67,19.67,0,0,1,367,197.7c10.83-3,23.55,2.68,27.76,13.08a22.67,22.67,0,0,1-40.92,19.36,32.93,32.93,0,0,0-3.83-5.85,42.62,42.62,0,1,0-.1,55.36,36.7,36.7,0,0,0,4.09-6.2,22.5,22.5,0,1,1,8.4,30.79h0a42.13,42.13,0,0,0-57.5,57.6h0a19.44,19.44,0,0,1,1.82,4.5c3.22,11.49-2.85,24.41-14.11,28.34a22.66,22.66,0,0,1-18.42-41.25,35.18,35.18,0,0,0,5.94-3.91,42.62,42.62,0,1,0-56.05-.81,38.72,38.72,0,0,0,7.07,4.84,22.5,22.5,0,1,1-30.89,8.35h0a42.13,42.13,0,0,0-57.6-57.5h0a23.1,23.1,0,0,1-5.58,2.08A22.66,22.66,0,1,1,151.21,274a31.91,31.91,0,0,0,3.79,5.82,42.62,42.62,0,1,0,0-55.32A37.1,37.1,0,0,0,151,230.6a22.5,22.5,0,1,1-8.38-30.84h0a42.13,42.13,0,0,0,57.5-57.6h0a19.73,19.73,0,0,1-1.75-4.4c-3.52-12.13,3.2-25.4,15.35-28.86a22.66,22.66,0,0,1,16.91,41.77,33,33,0,0,0-5.87,3.82,42.61,42.61,0,1,0,57.37,2.05,45.7,45.7,0,0,0-8.75-6.41,22.66,22.66,0,1,1,33.45-25.37,22.84,22.84,0,0,1-2,17.31h0a42,42,0,0,0-4.18,32Z"/></g></svg>