<?xml version="1.0" encoding="utf-8"?>
<!-- Generator: Adobe Illustrator 26.0.1, SVG Export Plug-In . SVG Version: 6.00 Build 0)  -->
<svg version="1.1" xmlns="http://www.w3.org/2000/svg" xmlns:xlink="http://www.w3.org/1999/xlink" x="0px" y="0px"
	 viewBox="0 0 24 24" style="enable-background:new 0 0 24 24;" xml:space="preserve">
<style type="text/css">
	.st0{fill:none;stroke:#8DC754;stroke-width:2;stroke-linecap:round;stroke-linejoin:round;}
	.st1{fill:#0ABFF1;stroke:#0ABFF1;stroke-width:2;stroke-linecap:round;stroke-linejoin:round;}
	.st2{fill:#EA5647;}
	.st3{fill:none;stroke:#EA5647;stroke-width:2;stroke-linecap:round;stroke-linejoin:round;}
	.st4{fill:#8DC754;stroke:#F7C04D;stroke-width:2;stroke-linecap:round;stroke-linejoin:round;}
</style>
<g id="Layer_1">
	<path class="st0" d="M6.5,8.9l-1.8,1.8L3,12.4L4.6,14l1.7,1.6 M21,12.4 M9.8,18.5"/>
</g>
<g id="Layer_2">
	<g>
		<polyline class="st1" points="11.6,11.9 10.5,15 9.4,18.1 		"/>
	</g>
	<g>
		<g>
			<g>
				<path class="st2" d="M13.7,6.1c0,0-0.2,0.7-0.6,1.6s-0.8,2.2-1.1,3.1s-0.5,1.6-0.5,1.6"/>
				<path class="st3" d="M13.7,6.1c0,0-0.2,0.7-0.6,1.6s-0.8,2.2-1.1,3.1s-0.5,1.6-0.5,1.6"/>
			</g>
		</g>
	</g>
</g>
<g id="Layer_3">
	<polyline class="st4" points="20.6,12.6 18.9,14.3 17.3,15.9 	"/>
	<polyline class="st4" points="17.1,9.1 18.8,10.9 20.6,12.6 	"/>
</g>
</svg>
