<svg xmlns="http://www.w3.org/2000/svg" viewBox="0 0 1000 1000"><defs><style>.cls-1{fill:#f8c04d;}.cls-2{fill:#ea5647;}.cls-3{fill:#0abff1;}.cls-4{fill:#8dc754;}</style></defs><title>PHC-sym-color</title><g id="symbol"><g id="color"><circle class="cls-1" cx="142.61" cy="499.99" r="92.61"/><path class="cls-2" d="M679.33,204.07a92.26,92.26,0,0,0-61.13,23h0a178,178,0,0,1-235.63-.46h0a92.62,92.62,0,1,0,.52,139.6,178.08,178.08,0,0,1,235.12,0,92.61,92.61,0,1,0,61.14-162.18Z"/><path class="cls-3" d="M857.39,407.38a92.26,92.26,0,0,0-61.13,23h0A178,178,0,0,1,560.62,430h0a92.62,92.62,0,1,0,.52,139.6,178.08,178.08,0,0,1,235.12,0,92.61,92.61,0,1,0,61.14-162.18Z"/><path class="cls-4" d="M678.69,610.7a92.26,92.26,0,0,0-61.12,23h0a178.07,178.07,0,0,1-235.64-.46h0a92.62,92.62,0,1,0,.53,139.6,178.06,178.06,0,0,1,235.12,0A92.61,92.61,0,1,0,678.69,610.7Z"/></g></g></svg>