<svg width="24" height="24" viewBox="0 0 24 24" fill="none" xmlns="http://www.w3.org/2000/svg">
<rect width="24" height="24" fill="white"/>
<path d="M12.0437 15.4991V17.4991M18.6437 20.9991H5.44373C5.31031 21.0072 5.17672 20.9868 5.05176 20.9394C4.9268 20.892 4.81332 20.8186 4.71881 20.7241C4.6243 20.6296 4.55092 20.5161 4.5035 20.3911C4.45608 20.2662 4.43571 20.1326 4.44373 19.9991V12.7991C4.43571 12.6657 4.45608 12.5321 4.5035 12.4072C4.55092 12.2822 4.6243 12.1687 4.71881 12.0742C4.81332 11.9797 4.9268 11.9063 5.05176 11.8589C5.17672 11.8115 5.31031 11.7911 5.44373 11.7991H18.5437C18.6771 11.7911 18.8107 11.8115 18.9357 11.8589C19.0607 11.9063 19.1741 11.9797 19.2686 12.0742C19.3632 12.1687 19.4365 12.2822 19.484 12.4072C19.5314 12.5321 19.5517 12.6657 19.5437 12.7991V19.9991C19.5685 20.1292 19.5609 20.2633 19.5217 20.3897C19.4824 20.5161 19.4127 20.631 19.3187 20.7241C19.1383 20.9004 18.896 20.9991 18.6437 20.9991ZM7.74373 11.7991V7.29915C7.74373 6.15872 8.19676 5.065 9.00317 4.25859C9.80957 3.45218 10.9033 2.99915 12.0437 2.99915C13.1842 2.99915 14.2779 3.45218 15.0843 4.25859C15.8907 5.065 16.3437 6.15872 16.3437 7.29915V11.7991H7.74373Z" stroke="black" stroke-width="2" stroke-linecap="round" stroke-linejoin="round"/>
</svg>
