<svg width="280" height="280" viewBox="0 0 280 280" fill="none" xmlns="http://www.w3.org/2000/svg">
<path d="M33.5184 104.139C34.7998 109.827 36.7587 115.342 39.3533 120.564C43.8909 129.556 50.2325 137.517 57.9826 143.95C65.7326 150.384 74.725 155.151 84.399 157.956C103.392 163.548 122.773 161.292 138.985 151.615C140.852 150.497 142.709 149.437 144.489 148.465C161.546 139.138 174.743 136.649 188.621 140.13C195.565 141.916 202.081 145.072 207.786 149.415C213.492 153.757 218.27 159.197 221.841 165.415C210.689 164.83 199.554 166.832 189.304 171.262C179.054 175.693 169.967 182.434 162.753 190.958C155.539 199.481 150.393 209.557 147.718 220.399C145.042 231.24 144.909 242.553 147.329 253.454L148.544 258.929L153.883 260.612C166.015 264.459 178.946 265.041 191.375 262.301C203.804 259.56 215.291 253.592 224.679 245C234.068 236.407 241.026 225.492 244.854 213.354C248.682 201.216 249.244 188.284 246.484 175.86C243.564 162.729 237.048 150.67 227.665 141.032C218.283 131.393 206.404 124.556 193.357 121.283C169.268 115.235 149.595 123.52 135.163 131.417C133.16 132.506 131.098 133.692 129.017 134.937C117.512 141.803 103.625 143.359 89.9033 139.313C76.5323 135.461 65.1604 126.604 58.1515 114.583C59.4352 114.651 60.7189 114.69 62.0415 114.69C72.8825 114.678 83.5827 112.233 93.3535 107.537C103.124 102.84 111.717 96.0104 118.497 87.5517C125.278 79.093 130.075 69.2206 132.533 58.6619C134.991 48.1033 135.049 37.1276 132.702 26.5436L131.448 21.0783L126.099 19.3861C113.968 15.5403 101.038 14.959 88.6112 17.7006C76.1842 20.4423 64.6989 26.4101 55.3123 35.003C45.9256 43.596 38.9689 54.5106 35.1429 66.6478C31.3168 78.7849 30.7565 91.7159 33.5184 104.139V104.139ZM80.7424 40.9267C91.2286 35.7108 103.155 34.1401 114.634 36.463C115.542 44.7438 114.485 53.1222 111.549 60.9181C108.613 68.714 103.88 75.7079 97.7351 81.3321C91.5898 86.9564 84.2051 91.0526 76.1803 93.2883C68.1554 95.524 59.7164 95.8362 51.5483 94.1997C50.3475 83.3971 52.5062 72.487 57.7304 62.9557C62.9546 53.4245 70.9902 45.7355 80.7424 40.9365V40.9267ZM199.25 239.023C188.771 244.261 176.843 245.849 165.359 243.535C164.452 235.255 165.51 226.878 168.447 219.083C171.383 211.288 176.116 204.296 182.261 198.673C188.407 193.05 195.791 188.954 203.815 186.719C211.839 184.484 220.277 184.172 228.444 185.808C229.639 196.603 227.477 207.505 222.253 217.027C217.029 226.549 208.996 234.23 199.25 239.023V239.023Z" fill="#6BBE46"/>
</svg>
