<svg xmlns="http://www.w3.org/2000/svg" viewBox="0 0 222.58 255.03"><defs><style>.cls-1{fill:#6bbe46;}</style></defs><g id="sym-color"><path class="cls-1" d="M1.8,90.66a75,75,0,0,0,6,16.89A75.4,75.4,0,0,0,54.12,146c19.53,5.75,39.46,3.43,56.13-6.52,1.92-1.15,3.83-2.24,5.66-3.24,17.54-9.59,31.11-12.15,45.38-8.57a55.26,55.26,0,0,1,34.16,26,74.49,74.49,0,0,0-76.62,90.53l1.25,5.63,5.49,1.73a74.48,74.48,0,0,0,95.22-87.15h0a74.54,74.54,0,0,0-54.63-56.12c-24.77-6.22-45,2.3-59.84,10.42-2.06,1.12-4.18,2.34-6.32,3.62-11.83,7.06-26.11,8.66-40.22,4.5A55.62,55.62,0,0,1,27.13,101.4c1.32.07,2.64.11,4,.11a74.51,74.51,0,0,0,72.66-90.64L102.5,5.25,97,3.51A74.47,74.47,0,0,0,1.8,90.66Zm48.56-65a54.14,54.14,0,0,1,34.85-4.59A54.49,54.49,0,0,1,20.34,80.44,54.35,54.35,0,0,1,50.36,25.67ZM172.22,229.36A54.06,54.06,0,0,1,137.37,234a54.49,54.49,0,0,1,64.87-59.36A54.32,54.32,0,0,1,172.22,229.36Z"/></g></svg>
